<svg xmlns="http://www.w3.org/2000/svg" viewBox="0 0 48 16" fill="none">
  <rect width="48" height="16" rx="2" fill="#1A1F71"/>
  <path d="M18 12L20.5 4H23L20.5 12H18zM28 4.3c-.6-.2-1.5-.4-2.6-.4-2.9 0-4.9 1.4-4.9 3.4 0 1.5 1.4 2.3 2.5 2.8 1.1.5 1.5.8 1.5 1.3 0 .7-.9 1-1.7 1-1.1 0-1.7-.2-2.6-.5l-.4-.2-.4 2.2c.7.3 1.9.5 3.2.5 3 0 5-1.4 5-3.5 0-1.2-.7-2-2.3-2.8-1-.5-1.6-.8-1.6-1.3 0-.4.5-.9 1.6-.9.9 0 1.6.2 2.1.4l.3.1.3-2.1zM33.5 4h-2.2c-.7 0-1.2.2-1.5.9L25.5 12h3l.6-1.6h3.6l.3 1.6h2.7L33.5 4zm-3.5 5l1.1-2.8.6 2.8h-1.7zM16 4l-2.9 5.5-.3-1.5C12.2 6.4 10.8 5 9 4.3L11.7 12h3l4.3-8H16z" fill="white"/>
  <path d="M10.5 4H6l-.1.3C9.2 5 11.5 6.8 12.5 9L11.4 5c-.2-.7-.7-.9-1-.9-.1-.1-.1-.1 0-.1z" fill="#FAA61A"/>
</svg>